<svg xmlns="http://www.w3.org/2000/svg" viewBox="0 0 58 30">
    <rect style="fill:#c8cbc8;" x="54" y="10" width="4" height="10"/>
    <path style="fill:#e7eced;"
          d="M1.06,28.62V3.54A2.46,2.46,0,0,1,3.52,1.08H52.59a2.46,2.46,0,0,1,2.47,2.46V28.62a2.46,2.46,0,0,1-2.47,2.46H3.52A2.46,2.46,0,0,1,1.06,28.62Z"
          transform="translate(-1.06 -1.08)"/>
    <path style="fill:#ff3e00;"
          d="M14.06,1.08H3.52A2.46,2.46,0,0,0,1.06,3.54V28.62a2.46,2.46,0,0,0,2.46,2.46H14.06Z"
          transform="translate(-1.06 -1.08)"/>
</svg>