<svg xmlns="http://www.w3.org/2000/svg" viewBox="0 0 512 512">
    <path
            d="m395.31 0h-169.08l-12.896 234.666 12.896 217.667h169.08c30.327 0 55-24.673 55-55v-342.333c0-30.327-24.673-55-55-55z"
            fill="#fdc673"/>
    <path
            d="m176.23 0c-30.327 0-55 24.673-55 55v342.333c0 30.327 24.673 55 55 55h49.999v-452.333z"
            fill="#ffdf8e"/>
    <path
            d="m335.769 59.667h-109.54l-12.896 236.374 12.896 215.959h109.54c30.327 0 55-24.673 55-55v-342.333c0-30.327-24.672-55-55-55z"
            fill="#e2e2ea"/>
    <path
            d="m116.69 59.667c-30.327 0-55 24.673-55 55v342.333c0 30.327 24.673 55 55 55h109.539v-452.333z"
            fill="#f4f4f6"/>
    <path d="m301.229 128h30v30h-30z" fill="#9ccefd"/>
    <path d="m121.23 380.431h30v30h-30z" fill="#b0d8fd"/>
    <path d="m226.229 454.936 40.563-24.91v-195.359h-40.563l-12.896 106.666z"
          fill="#a7a7c1"/>
    <path d="m185.668 430.026 40.561 24.91v-220.269h-40.561z" fill="#bcbcd0"/>
    <path d="m266.889 230.298v-111.301h-40.66l-12.896 62.336 12.896 48.965z"
          fill="#dc4b4b"/>
    <path d="m185.571 118.997h40.658v111.301h-40.658z" fill="#e07037"/>
    <path
            d="m292.735 197.676c-.286 13.209-11.267 23.956-24.479 23.956h-42.027l-12.896 13.034 12.896 16.966h42.027c14.331 0 27.864-5.521 38.107-15.544s16.054-23.435 16.363-37.763z"
            fill="#fdc673"/>
    <path
            d="m184.203 221.632c-13.212 0-24.193-10.747-24.48-23.956l-29.992.649c.31 14.328 6.121 27.739 16.364 37.762 10.242 10.024 23.775 15.544 38.107 15.544h42.026v-30h-42.025z"
            fill="#ffdf8e"/>
</svg>