<svg xmlns="http://www.w3.org/2000/svg" viewBox="0 0 512 512">
    <path style="fill:#cfd8dc;"
          d="M266.67,0h-256A10.67,10.67,0,0,0,0,10.67v256a10.67,10.67,0,0,0,10.67,10.66H245.33A10.66,10.66,0,0,0,256,266.67V256h10.67a10.67,10.67,0,0,0,10.66-10.67V10.67A10.67,10.67,0,0,0,266.67,0Z"/>
    <path style="fill:#2196f3;"
          d="M245.33,234.67h256A10.67,10.67,0,0,1,512,245.33v256A10.67,10.67,0,0,1,501.33,512h-256a10.66,10.66,0,0,1-10.66-10.67v-256A10.66,10.66,0,0,1,245.33,234.67Z"/>
    <path style="fill:#fafafa;"
          d="M202.67,106.67h-128a10.67,10.67,0,0,1,0-21.34h128a10.67,10.67,0,0,1,0,21.34Z"/>
    <path style="fill:#fafafa;"
          d="M138.67,106.67A10.67,10.67,0,0,1,128,96V53.33a10.67,10.67,0,0,1,21.33,0V96A10.67,10.67,0,0,1,138.67,106.67Z"/>
    <path style="fill:#fafafa;"
          d="M181.33,234.67a10.66,10.66,0,0,1-7.19-2.8C165.06,223.6,85.33,149.33,85.33,96a10.67,10.67,0,0,1,21.34,0c0,37.29,59.09,99.35,81.85,120.13a10.67,10.67,0,0,1-7.19,18.54Z"/>
    <path style="fill:#fafafa;"
          d="M96,234.67a10.67,10.67,0,0,1-7.19-18.54c22.76-20.78,81.86-82.84,81.86-120.13A10.67,10.67,0,1,1,192,96c0,53.33-79.72,127.6-88.81,135.87A10.7,10.7,0,0,1,96,234.67Z"/>
    <path style="fill:#fafafa;"
          d="M437.33,469.33a10.66,10.66,0,0,1-10-6.91l-54-144-54,144a10.67,10.67,0,0,1-20-7.51l64-170.67a11.1,11.1,0,0,1,20,0l64,170.67a10.67,10.67,0,0,1-6.23,13.74A10.26,10.26,0,0,1,437.33,469.33Z"/>
    <path style="fill:#fafafa;"
          d="M416,426.67H330.67a10.67,10.67,0,0,1,0-21.34H416a10.67,10.67,0,0,1,0,21.34Z"/>
    <path style="fill:#455a64;"
          d="M458.67,213.33A10.67,10.67,0,0,1,448,202.67,138.83,138.83,0,0,0,309.33,64a10.67,10.67,0,0,1,0-21.33,160.16,160.16,0,0,1,160,160A10.66,10.66,0,0,1,458.67,213.33Z"/>
    <path style="fill:#455a64;"
          d="M458.67,213.33a10.67,10.67,0,0,1-7.56-3.11l-42.66-42.67a10.66,10.66,0,0,1,15.08-15.08l34,34,24.61-32.85a10.67,10.67,0,0,1,17.09,12.78l0,0-32,42.67a10.66,10.66,0,0,1-7.79,4.26Z"/>
    <path style="fill:#455a64;"
          d="M202.67,469.33a160.16,160.16,0,0,1-160-160,10.67,10.67,0,0,1,21.33,0A138.83,138.83,0,0,0,202.67,448a10.67,10.67,0,0,1,0,21.33Z"/>
    <path style="fill:#455a64;"
          d="M21.33,362.67A10.67,10.67,0,0,1,12.8,345.6l32-42.67a10.67,10.67,0,0,1,14.93-2.15,11,11,0,0,1,1.15,1l42.67,42.67a10.66,10.66,0,1,1-14.82,15.34l-.26-.26-34-34L29.87,358.4A10.68,10.68,0,0,1,21.33,362.67Z"/>
</svg>